<svg width="15" height="14" viewBox="0 0 15 14" fill="none" xmlns="http://www.w3.org/2000/svg">
<path d="M13.4062 8.29297L14.5996 3.01172C14.6758 2.63086 14.3965 2.25 13.9902 2.25H4.03711L3.80859 1.13281C3.73242 0.853516 3.47852 0.625 3.19922 0.625H0.609375C0.253906 0.625 0 0.904297 0 1.23438V1.64062C0 1.99609 0.253906 2.25 0.609375 2.25H2.36133L4.16406 10.9844C3.73242 11.2383 3.45312 11.6953 3.45312 12.2031C3.45312 12.9902 4.08789 13.625 4.875 13.625C5.63672 13.625 6.29688 12.9902 6.29688 12.2031C6.29688 11.8223 6.11914 11.4668 5.86523 11.1875H11.1719C10.918 11.4668 10.7656 11.8223 10.7656 12.2031C10.7656 12.9902 11.4004 13.625 12.1875 13.625C12.9492 13.625 13.6094 12.9902 13.6094 12.2031C13.6094 11.6445 13.2793 11.1621 12.7969 10.9336L12.9238 10.3242C13.0254 9.94336 12.7207 9.5625 12.3398 9.5625H5.53516L5.35742 8.75H12.7969C13.0762 8.75 13.3301 8.57227 13.4062 8.29297Z" fill="#959DB3"/>
</svg>
