<svg width="6" height="10" viewBox="0 0 6 10" fill="none" xmlns="http://www.w3.org/2000/svg">
<path d="M0.217009 4.47707C0.190043 4.51397 0.16629 4.55312 0.146009 4.59407C0.112171 4.6374 0.082695 4.68396 0.0580087 4.73307C0.0419298 4.78387 0.0308768 4.83612 0.0250087 4.88907C-0.00805139 4.9901 -0.00805139 5.09904 0.0250087 5.20007C0.0308768 5.25303 0.0419298 5.30528 0.0580087 5.35607C0.082695 5.40519 0.112171 5.45175 0.146009 5.49507C0.166609 5.53606 0.190698 5.57521 0.218009 5.61207L4.61801 9.78207C4.69706 9.8553 4.78978 9.9122 4.89086 9.94953C4.99194 9.98686 5.09939 10.0039 5.20706 9.9996C5.31472 9.99533 5.42049 9.96985 5.51829 9.92463C5.61609 9.87941 5.70401 9.81533 5.77701 9.73607C5.92564 9.57523 6.00558 9.3627 5.99979 9.14377C5.994 8.92484 5.90294 8.71683 5.74601 8.56407L1.98901 5.00007L5.74601 1.43607C5.90294 1.28331 5.994 1.0753 5.99979 0.856375C6.00558 0.637447 5.92564 0.424916 5.77701 0.264072C5.70401 0.184813 5.61609 0.120738 5.51829 0.0755167C5.42049 0.0302954 5.31472 0.00481892 5.20706 0.000545502C5.09939 -0.00372791 4.99194 0.0132866 4.89086 0.0506144C4.78978 0.0879421 4.69706 0.144848 4.61801 0.218073L0.217009 4.47707Z" fill="#959DB3"/>
</svg>
