<svg width="6" height="10" viewBox="0 0 6 10" fill="none" xmlns="http://www.w3.org/2000/svg">
<path d="M5.78299 5.52293C5.80996 5.48603 5.83371 5.44688 5.85399 5.40593C5.88783 5.3626 5.91731 5.31604 5.94199 5.26693C5.95807 5.21613 5.96912 5.16388 5.97499 5.11093C6.00805 5.0099 6.00805 4.90096 5.97499 4.79993C5.96912 4.74697 5.95807 4.69472 5.94199 4.64393C5.91731 4.59481 5.88783 4.54825 5.85399 4.50493C5.83339 4.46394 5.8093 4.42479 5.78199 4.38793L1.38199 0.217927C1.30294 0.144703 1.21022 0.0877963 1.10914 0.0504689C1.00806 0.0131415 0.900612 -0.00387304 0.792945 0.000400193C0.685278 0.00467343 0.579513 0.0301505 0.481709 0.0753714C0.383906 0.120592 0.295988 0.184668 0.222991 0.263927C0.074358 0.424771 -0.00558186 0.637303 0.000208855 0.85623C0.00599957 1.07516 0.0970631 1.28317 0.253992 1.43593L4.01099 4.99993L0.253992 8.56393C0.0970631 8.71669 0.00599957 8.9247 0.000208855 9.14363C-0.00558186 9.36255 0.074358 9.57508 0.222991 9.73593C0.295988 9.81519 0.383906 9.87926 0.481709 9.92448C0.579513 9.9697 0.685278 9.99518 0.792945 9.99945C0.900612 10.0037 1.00806 9.98671 1.10914 9.94939C1.21022 9.91206 1.30294 9.85515 1.38199 9.78193L5.78299 5.52293Z" fill="#959DB3"/>
</svg>
