<svg width="21" height="20" viewBox="0 0 21 20" fill="none" xmlns="http://www.w3.org/2000/svg">
<path d="M19.1174 11.4122H1.71742L0.417419 9.56624L2.15642 7.71924H18.6784L20.4174 9.56624L19.1174 11.4122Z" fill="#0E512B"/>
<path d="M17.7134 20H3.12243C3.00896 19.9992 2.89677 19.9761 2.79224 19.9319C2.68772 19.8878 2.59291 19.8235 2.51324 19.7427C2.43356 19.6619 2.37058 19.5662 2.32789 19.4611C2.2852 19.356 2.26363 19.2435 2.26443 19.13V0.87C2.26363 0.756537 2.2852 0.64403 2.32789 0.538902C2.37058 0.433774 2.43356 0.338084 2.51324 0.257296C2.59291 0.176509 2.68772 0.112206 2.79224 0.0680586C2.89677 0.0239116 3.00896 0.000785201 3.12243 0H13.4224L18.5724 5.217V19.13C18.5732 19.2435 18.5516 19.3561 18.5089 19.4613C18.4661 19.5665 18.403 19.6623 18.3233 19.7431C18.2435 19.8239 18.1486 19.8881 18.0439 19.9322C17.9393 19.9763 17.827 19.9993 17.7134 20Z" fill="#E6E6E6"/>
<path d="M13.0314 0V4.616C13.0314 4.8608 13.1287 5.09556 13.3018 5.26866C13.4749 5.44176 13.7096 5.539 13.9544 5.539H18.5714L13.0314 0Z" fill="#B3B3B3"/>
<path d="M19.5474 17.2299H1.28742C1.04993 17.2221 0.825178 17.1206 0.662193 16.9477C0.499208 16.7748 0.411219 16.5444 0.417421 16.3069V8.9209H20.4174V16.3069C20.4236 16.5444 20.3356 16.7748 20.1726 16.9477C20.0097 17.1206 19.7849 17.2221 19.5474 17.2299Z" fill="#1B7343"/>
<path d="M7.7944 15.2778H6.6614L5.9564 14.1448L5.2564 15.2778H4.1474L5.3474 13.4228L4.2164 11.6528H5.3024L5.9574 12.7738L6.5874 11.6528H7.7054L6.5564 13.4998L7.7944 15.2778Z" fill="white"/>
<path d="M7.95544 15.2778V11.6528H8.93544V14.4868H10.3354V15.2778H7.95544Z" fill="white"/>
<path d="M13.0924 14.1762C13.0963 14.3887 13.0367 14.5976 12.9214 14.7762C12.8001 14.9568 12.6288 15.0983 12.4284 15.1832C12.1896 15.2847 11.9318 15.3341 11.6724 15.3282C11.4685 15.3314 11.2649 15.3143 11.0644 15.2772C10.8875 15.2391 10.7159 15.1797 10.5534 15.1002V14.2252C10.7391 14.3206 10.9346 14.3957 11.1364 14.4492C11.3172 14.4996 11.5037 14.5265 11.6914 14.5292C11.8033 14.538 11.9151 14.5117 12.0114 14.4542C12.0429 14.4324 12.0684 14.4032 12.0859 14.3692C12.1033 14.3352 12.1121 14.2974 12.1114 14.2592C12.112 14.2126 12.0976 14.167 12.0704 14.1292C12.0336 14.0838 11.9889 14.0455 11.9384 14.0162C11.8784 13.9782 11.7174 13.9002 11.4564 13.7832C11.2658 13.7033 11.0868 13.598 10.9244 13.4702C10.8113 13.3762 10.7213 13.2575 10.6614 13.1232C10.601 12.9764 10.5717 12.8188 10.5754 12.6602C10.5685 12.5102 10.5981 12.3607 10.6617 12.2247C10.7253 12.0887 10.8209 11.9701 10.9404 11.8792C11.2336 11.6779 11.5853 11.5794 11.9404 11.5992C12.3371 11.604 12.7283 11.6926 13.0884 11.8592L12.7884 12.6152C12.5154 12.4766 12.2162 12.3972 11.9104 12.3822C11.813 12.3742 11.7155 12.3977 11.6324 12.4492C11.6054 12.4676 11.5834 12.4924 11.5683 12.5213C11.5531 12.5503 11.5452 12.5825 11.5454 12.6152C11.5472 12.6535 11.5582 12.6908 11.5773 12.724C11.5964 12.7572 11.6232 12.7854 11.6554 12.8062C11.8468 12.9246 12.0474 13.0273 12.2554 13.1132C12.5057 13.2091 12.729 13.3642 12.9064 13.5652C13.0344 13.7426 13.0998 13.9575 13.0924 14.1762Z" fill="white"/>
<path d="M16.6824 15.2778H15.5494L14.8384 14.1448L14.1384 15.2778H13.0384L14.2384 13.4228L13.1074 11.6528H14.1934L14.8484 12.7738L15.4784 11.6528H16.5964L15.4484 13.4998L16.6824 15.2778Z" fill="white"/>
</svg>
